<svg viewBox="0 0 32 32" xmlns="http://www.w3.org/2000/svg" aria-hidden="true" role="presentation" focusable="false" style="display: block; height: 24px; width: 24px; fill: currentcolor;"><path d="M 24 27 c 0.988 0 1.945 0.351 2.671 1.009 c 0.306 0.276 0.71 0.445 1.142 0.483 L 28 28.5 v 2 l -0.228 -0.006 a 3.96 3.96 0 0 1 -2.443 -1.003 A 1.978 1.978 0 0 0 24 29 c -0.502 0 -0.978 0.175 -1.328 0.491 a 3.977 3.977 0 0 1 -2.67 1.009 a 3.977 3.977 0 0 1 -2.672 -1.009 A 1.978 1.978 0 0 0 16 29 c -0.503 0 -0.98 0.175 -1.329 0.491 a 3.978 3.978 0 0 1 -2.67 1.009 a 3.978 3.978 0 0 1 -2.672 -1.008 A 1.978 1.978 0 0 0 8 29 c -0.503 0 -0.98 0.175 -1.33 0.491 a 3.96 3.96 0 0 1 -2.442 1.003 L 4 30.5 v -2 l 0.187 -0.008 a 1.953 1.953 0 0 0 1.142 -0.483 A 3.975 3.975 0 0 1 8 27 c 0.988 0 1.945 0.352 2.671 1.009 c 0.35 0.316 0.826 0.49 1.33 0.491 c 0.502 0 0.979 -0.175 1.328 -0.492 A 3.974 3.974 0 0 1 16 27 c 0.988 0 1.945 0.351 2.671 1.009 c 0.35 0.316 0.826 0.49 1.33 0.491 c 0.502 0 0.979 -0.175 1.328 -0.491 A 3.975 3.975 0 0 1 23.999 27 Z m 0 -5 c 0.988 0 1.945 0.351 2.671 1.009 c 0.306 0.276 0.71 0.445 1.142 0.483 L 28 23.5 v 2 l -0.228 -0.006 a 3.96 3.96 0 0 1 -2.443 -1.003 A 1.978 1.978 0 0 0 24 24 c -0.502 0 -0.978 0.175 -1.328 0.491 a 3.977 3.977 0 0 1 -2.67 1.009 a 3.977 3.977 0 0 1 -2.672 -1.009 A 1.978 1.978 0 0 0 16 24 c -0.503 0 -0.98 0.175 -1.329 0.491 a 3.978 3.978 0 0 1 -2.67 1.009 a 3.978 3.978 0 0 1 -2.672 -1.008 A 1.978 1.978 0 0 0 8 24 c -0.503 0 -0.98 0.175 -1.33 0.491 a 3.96 3.96 0 0 1 -2.442 1.003 L 4 25.5 v -2 l 0.187 -0.008 a 1.953 1.953 0 0 0 1.142 -0.483 A 3.975 3.975 0 0 1 8 22 c 0.988 0 1.945 0.352 2.671 1.009 c 0.35 0.316 0.826 0.49 1.33 0.491 c 0.502 0 0.979 -0.175 1.328 -0.492 A 3.974 3.974 0 0 1 16 22 c 0.988 0 1.945 0.351 2.671 1.009 c 0.35 0.316 0.826 0.49 1.33 0.491 c 0.502 0 0.979 -0.175 1.328 -0.491 A 3.975 3.975 0 0 1 23.999 22 Z m 0 -5 c 0.988 0 1.945 0.351 2.671 1.009 c 0.306 0.276 0.71 0.445 1.142 0.483 L 28 18.5 v 2 l -0.228 -0.006 a 3.96 3.96 0 0 1 -2.443 -1.003 A 1.978 1.978 0 0 0 24 19 c -0.502 0 -0.978 0.175 -1.328 0.491 a 3.977 3.977 0 0 1 -2.67 1.009 a 3.977 3.977 0 0 1 -2.672 -1.009 A 1.978 1.978 0 0 0 16 19 c -0.503 0 -0.98 0.175 -1.329 0.491 a 3.978 3.978 0 0 1 -2.67 1.009 a 3.978 3.978 0 0 1 -2.672 -1.008 A 1.978 1.978 0 0 0 8 19 c -0.503 0 -0.98 0.175 -1.33 0.491 a 3.96 3.96 0 0 1 -2.442 1.003 L 4 20.5 v -2 l 0.187 -0.008 a 1.953 1.953 0 0 0 1.142 -0.483 A 3.975 3.975 0 0 1 8 17 c 0.988 0 1.945 0.352 2.671 1.009 c 0.35 0.316 0.826 0.49 1.33 0.491 c 0.502 0 0.979 -0.175 1.328 -0.492 A 3.974 3.974 0 0 1 16 17 c 0.988 0 1.945 0.351 2.671 1.009 c 0.35 0.316 0.826 0.49 1.33 0.491 c 0.502 0 0.979 -0.175 1.328 -0.491 A 3.975 3.975 0 0 1 23.999 17 Z M 16 1 a 9 9 0 0 1 8.76 11.072 c 0.71 0.131 1.374 0.45 1.911 0.937 c 0.306 0.276 0.71 0.445 1.142 0.483 L 28 13.5 v 2 l -0.228 -0.006 a 3.96 3.96 0 0 1 -2.443 -1.003 a 1.951 1.951 0 0 0 -1.142 -0.483 l -0.145 -0.007 h -0.084 a 2.001 2.001 0 0 0 -1.15 0.378 l -0.137 0.112 a 3.977 3.977 0 0 1 -2.67 1.009 a 3.977 3.977 0 0 1 -2.672 -1.009 A 1.978 1.978 0 0 0 16 14 c -0.503 0 -0.98 0.175 -1.329 0.491 a 3.978 3.978 0 0 1 -2.67 1.009 a 3.978 3.978 0 0 1 -2.672 -1.008 a 1.951 1.951 0 0 0 -1.142 -0.484 l -0.145 -0.007 h -0.084 a 2.002 2.002 0 0 0 -1.15 0.378 l -0.137 0.112 a 3.96 3.96 0 0 1 -2.443 1.003 L 4 15.5 v -2 l 0.187 -0.008 a 1.953 1.953 0 0 0 1.142 -0.483 a 3.916 3.916 0 0 1 1.91 -0.939 A 9 9 0 0 1 16 1 Z m 0 2 a 7 7 0 0 0 -6.636 9.235 c 0.482 0.168 0.926 0.429 1.307 0.774 c 0.35 0.316 0.826 0.49 1.33 0.491 c 0.502 0 0.979 -0.175 1.328 -0.492 A 3.974 3.974 0 0 1 16 12 c 0.988 0 1.945 0.351 2.671 1.009 c 0.35 0.316 0.826 0.49 1.33 0.491 c 0.439 0 0.86 -0.134 1.191 -0.38 l 0.137 -0.111 c 0.38 -0.345 0.825 -0.606 1.304 -0.776 A 7 7 0 0 0 16 3 Z"/></svg>