<svg viewBox="0 0 32 32" xmlns="http://www.w3.org/2000/svg" aria-hidden="true" role="presentation" focusable="false" style="display: block; height: 24px; width: 24px; fill: currentcolor;"><path d="M 3 3 v 4 h 26 V 3 h 2 v 18 a 5.002 5.002 0 0 1 -3.999 4.9 L 27 30 h -2 v -4 H 7 v 4 H 5 v -4.1 a 5.002 5.002 0 0 1 -3.995 -4.683 L 1 21 V 3 Z m 6 6 H 7 v 15 h 2 Z m 4 0 h -2 v 15 h 2 Z m 4 0 h -2 v 15 h 2 Z m 4 0 h -2 v 15 h 2 Z m 4 0 h -2 v 15 h 2 Z M 5 9 H 3 v 12 c 0 1.306 0.835 2.418 2 2.83 Z m 24 0 h -2 v 14.829 a 3.002 3.002 0 0 0 1.995 -2.653 L 29 21 Z"/></svg>