<svg viewBox="0 0 32 32" xmlns="http://www.w3.org/2000/svg" aria-hidden="true" role="presentation" focusable="false" style="display: block; height: 24px; width: 24px; fill: currentcolor;"><path d="M 28 2 a 2 2 0 0 1 1.995 1.85 L 30 4 v 24 a 2 2 0 0 1 -1.85 1.995 L 28 30 H 4 a 2 2 0 0 1 -1.995 -1.85 L 2 28 V 4 a 2 2 0 0 1 1.85 -1.995 L 4 2 Z m 0 2 H 4 v 24 h 24 Z M 16 7 a 9 9 0 1 1 0 18 a 9 9 0 0 1 0 -18 Z m 0 2 a 7 7 0 1 0 0 14 a 7 7 0 0 0 0 -14 Z m -4.795 5.579 a 6.948 6.948 0 0 1 3.675 1.755 l 0.462 0.444 a 8.968 8.968 0 0 0 4.614 2.28 a 5.017 5.017 0 0 1 -2.01 1.55 a 10.978 10.978 0 0 1 -4.255 -2.644 a 4.962 4.962 0 0 0 -2.656 -1.388 a 5.001 5.001 0 0 1 0.17 -1.998 Z m 3.08 -3.277 a 10.96 10.96 0 0 1 3.649 2.419 a 4.974 4.974 0 0 0 2.995 1.436 a 4.99 4.99 0 0 1 -0.064 2.002 a 6.967 6.967 0 0 1 -4.12 -1.807 l -0.462 -0.445 a 8.955 8.955 0 0 0 -4.07 -2.17 a 5.002 5.002 0 0 1 2.072 -1.435 Z M 7 6 a 1 1 0 1 1 0 2 a 1 1 0 0 1 0 -2 Z"/></svg>