<svg viewBox="0 0 32 32" xmlns="http://www.w3.org/2000/svg" aria-hidden="true" role="presentation" focusable="false" style="display: block; height: 24px; width: 24px; fill: currentcolor;"><path d="m 31 6 v 2 h -1 v 23 h -6 v -18 h -16 v 18 h -6 v -23 h -1 v -2 Z m -15.368 8.991 l 0.959 0.702 c 3.317 2.43 5.141 5.07 5.382 7.934 l 0.02 0.287 l 0.005 0.207 l 0.002 0.138 c 0 3.183 -2.698 5.741 -6 5.741 c -3.168 0 -5.789 -2.358 -5.988 -5.387 l -0.01 -0.218 l -0.002 -0.147 c 0.004 -1.629 0.557 -3.29 1.64 -4.985 l 0.224 -0.34 l 0.677 -0.98 l 1.238 0.783 Z m 12.368 -6.991 h -24 v 21 h 2 v -16 a 2 2 0 0 1 1.697 -1.977 l 0.154 -0.018 l 0.149 -0.005 h 16 a 2 2 0 0 1 1.995 1.85 l 0.005 0.15 v 16 h 2 Z m -12 17.355 l -0.092 0.093 c -0.62 0.655 -0.908 1.233 -0.908 1.719 c 0 0.428 0.413 0.833 1 0.833 s 1 -0.405 1 -0.833 c 0 -0.445 -0.242 -0.968 -0.76 -1.556 l -0.148 -0.163 Z m 0.351 -7.315 l -1.766 3.562 l -1.466 -0.927 l -0.152 0.265 c -0.534 0.96 -0.844 1.878 -0.937 2.749 l -0.023 0.289 l -0.007 0.26 l 0.001 0.118 c 0.025 0.92 0.408 1.761 1.024 2.403 c 0.14 -1.137 0.86 -2.237 2.097 -3.324 l 0.238 -0.203 l 0.64 -0.534 l 0.64 0.534 c 1.384 1.153 2.188 2.32 2.335 3.528 a 3.593 3.593 0 0 0 1.018 -2.27 l 0.007 -0.218 l -0.006 -0.28 c -0.088 -1.865 -1.113 -3.702 -3.129 -5.51 l -0.268 -0.236 Z m 14.649 -16.04 v 2 h -30 v -2 Z"/></svg>