<svg viewBox="0 0 32 32" xmlns="http://www.w3.org/2000/svg" aria-hidden="true" role="presentation" focusable="false" style="display: block; height: 24px; width: 24px; fill: currentcolor;"><path d="M 28 2 a 2 2 0 0 1 1.995 1.85 L 30 4 v 24 a 2 2 0 0 1 -1.85 1.995 L 28 30 H 4 a 2 2 0 0 1 -1.995 -1.85 L 2 28 V 4 a 2 2 0 0 1 1.85 -1.995 L 4 2 Z m -5.92 19.995 L 22 22 H 10 l -0.08 -0.005 L 4 27.916 V 28 h 24 v -0.085 Z M 28 4 H 4 v 21.084 l 12 -11.998 l 12 12 Z M 16 15.915 L 11.915 20 h 8.17 Z M 22 7 a 3 3 0 1 1 0 6 a 3 3 0 0 1 0 -6 Z m 0 2 a 1 1 0 1 0 0 2 a 1 1 0 0 0 0 -2 Z"/></svg>