<svg xmlns="http://www.w3.org/2000/svg" viewBox="0 0 32 32" aria-hidden="true" role="presentation" focusable="false" style="display: block; height: 24px; width: 24px; fill: currentcolor;"><path d="M 23 1 a 2 2 0 0 1 1.995 1.85 L 25 3 v 16 h 4 v 2 h -2 v 8 h 2 v 2 H 3 v -2 h 2 v -8 H 3 v -2 h 4 V 3 a 2 2 0 0 1 1.85 -1.995 L 9 1 Z M 9 21 H 7 v 8 h 2 Z m 4 0 h -2 v 8 h 2 Z m 4 0 h -2 v 8 h 2 Z m 4 0 h -2 v 8 h 2 Z m 4 0 h -2 v 8 h 2 Z m -10 -8 H 9 v 6 h 6 Z m 8 0 h -6 v 6 h 6 Z M 15 3 H 9 v 8 h 6 Z m 8 0 h -6 v 8 h 6 Z"/></svg>