<svg xmlns="http://www.w3.org/2000/svg" viewBox="0 0 32 32" aria-hidden="true" role="presentation" focusable="false" style="display: block; height: 24px; width: 24px; fill: currentcolor;"><path d="M 13.693 13.934 a 4 4 0 0 1 5.283 0.595 l 0.292 0.366 l 4.768 6.755 a 4 4 0 0 1 0.596 3.342 a 4.004 4.004 0 0 1 -4.496 2.913 l -0.403 -0.084 l -3.474 -0.932 a 1 1 0 0 0 -0.518 0 l -3.474 0.932 a 4 4 0 0 1 -2.941 -0.347 l -0.401 -0.249 a 4.004 4.004 0 0 1 -1.19 -5.207 l 0.229 -0.368 l 4.768 -6.755 a 4 4 0 0 1 0.961 -0.96 Z m 3.756 1.889 a 2 2 0 0 0 -2.979 0.09 l -0.104 0.136 l -4.838 6.861 a 2 2 0 0 0 2.048 3.017 l 0.173 -0.038 l 3.992 -1.07 a 1 1 0 0 1 0.518 0 l 3.964 1.063 l 0.143 0.034 a 2 2 0 0 0 2.132 -2.963 l -4.947 -7.014 Z M 27 12 a 4 4 0 1 1 0 8 a 4 4 0 0 1 0 -8 Z M 5 12 a 4 4 0 1 1 0 8 a 4 4 0 0 1 0 -8 Z m 22 2 a 2 2 0 1 0 0 4 a 2 2 0 0 0 0 -4 Z M 5 14 a 2 2 0 1 0 0 4 a 2 2 0 0 0 0 -4 Z m 6 -10 a 4 4 0 1 1 0 8 a 4 4 0 0 1 0 -8 Z m 10 0 a 4 4 0 1 1 0 8 a 4 4 0 0 1 0 -8 Z M 11 6 a 2 2 0 1 0 0 4 a 2 2 0 0 0 0 -4 Z m 10 0 a 2 2 0 1 0 0 4 a 2 2 0 0 0 0 -4 Z"/></svg>