<svg xmlns="http://www.w3.org/2000/svg" viewBox="0 0 32 32" aria-hidden="true" role="presentation" focusable="false" style="display: block; height: 24px; width: 24px; fill: currentcolor;"><path d="M 24 26 c 0.988 0 1.945 0.351 2.671 1.009 c 0.306 0.276 0.71 0.445 1.142 0.483 L 28 27.5 v 2 l -0.228 -0.006 a 3.96 3.96 0 0 1 -2.443 -1.003 A 1.978 1.978 0 0 0 24 28 c -0.502 0 -0.978 0.175 -1.328 0.491 a 3.977 3.977 0 0 1 -2.67 1.009 a 3.977 3.977 0 0 1 -2.672 -1.009 A 1.978 1.978 0 0 0 16 28 c -0.503 0 -0.98 0.175 -1.329 0.491 a 3.978 3.978 0 0 1 -2.67 1.009 a 3.978 3.978 0 0 1 -2.672 -1.008 A 1.978 1.978 0 0 0 8 28 c -0.503 0 -0.98 0.175 -1.33 0.491 a 3.96 3.96 0 0 1 -2.442 1.003 L 4 29.5 v -2 l 0.187 -0.008 a 1.953 1.953 0 0 0 1.142 -0.483 A 3.975 3.975 0 0 1 8 26 c 0.988 0 1.945 0.352 2.671 1.009 c 0.35 0.316 0.826 0.49 1.33 0.491 c 0.502 0 0.979 -0.175 1.328 -0.492 A 3.974 3.974 0 0 1 16 26 c 0.988 0 1.945 0.351 2.671 1.009 c 0.35 0.316 0.826 0.49 1.33 0.491 c 0.502 0 0.979 -0.175 1.328 -0.491 A 3.975 3.975 0 0 1 23.999 26 Z m 0 -5 c 0.988 0 1.945 0.351 2.671 1.009 c 0.306 0.276 0.71 0.445 1.142 0.483 L 28 22.5 v 2 l -0.228 -0.006 a 3.96 3.96 0 0 1 -2.443 -1.003 A 1.978 1.978 0 0 0 24 23 c -0.502 0 -0.978 0.175 -1.328 0.491 a 3.977 3.977 0 0 1 -2.67 1.009 a 3.977 3.977 0 0 1 -2.672 -1.009 A 1.978 1.978 0 0 0 16 23 c -0.503 0 -0.98 0.175 -1.329 0.491 a 3.978 3.978 0 0 1 -2.67 1.009 a 3.978 3.978 0 0 1 -2.672 -1.008 A 1.978 1.978 0 0 0 8 23 c -0.503 0 -0.98 0.175 -1.33 0.491 a 3.96 3.96 0 0 1 -2.442 1.003 L 4 24.5 v -2 l 0.187 -0.008 a 1.953 1.953 0 0 0 1.142 -0.483 A 3.975 3.975 0 0 1 8 21 c 0.988 0 1.945 0.352 2.671 1.009 c 0.35 0.316 0.826 0.49 1.33 0.491 c 0.502 0 0.979 -0.175 1.328 -0.492 A 3.974 3.974 0 0 1 16 21 c 0.988 0 1.945 0.351 2.671 1.009 c 0.35 0.316 0.826 0.49 1.33 0.491 c 0.502 0 0.979 -0.175 1.328 -0.491 A 3.975 3.975 0 0 1 23.999 21 Z M 20 3 a 4 4 0 0 1 3.995 3.8 L 24 7 v 2 h 4 v 2 h -4 v 5 c 0.912 0 1.798 0.3 2.5 0.862 l 0.171 0.147 c 0.306 0.276 0.71 0.445 1.142 0.483 L 28 17.5 v 2 l -0.228 -0.006 a 3.96 3.96 0 0 1 -2.443 -1.003 A 1.978 1.978 0 0 0 24 18 c -0.502 0 -0.978 0.175 -1.328 0.491 a 3.977 3.977 0 0 1 -2.67 1.009 a 3.977 3.977 0 0 1 -2.672 -1.009 A 1.978 1.978 0 0 0 16 18 c -0.503 0 -0.98 0.175 -1.329 0.491 a 3.978 3.978 0 0 1 -2.67 1.009 a 3.978 3.978 0 0 1 -2.672 -1.008 A 1.978 1.978 0 0 0 8 18 c -0.503 0 -0.98 0.175 -1.33 0.491 a 3.96 3.96 0 0 1 -2.442 1.003 L 4 19.5 v -2 l 0.187 -0.008 a 1.953 1.953 0 0 0 1.142 -0.483 A 3.975 3.975 0 0 1 8 16 c 0.988 0 1.945 0.352 2.671 1.009 c 0.35 0.316 0.826 0.49 1.33 0.491 c 0.502 0 0.979 -0.175 1.328 -0.492 a 3.956 3.956 0 0 1 2.444 -1.002 L 16 16 v -5 H 4 V 9 h 12 V 7 a 2 2 0 0 0 -3.995 -0.15 L 12 7 h -2 a 4 4 0 0 1 7 -2.645 A 3.985 3.985 0 0 1 20 3 Z m -2 13.523 c 0.16 0.091 0.313 0.194 0.459 0.307 l 0.212 0.179 c 0.35 0.316 0.826 0.49 1.33 0.491 c 0.439 0 0.86 -0.134 1.191 -0.38 l 0.137 -0.111 c 0.206 -0.187 0.431 -0.35 0.67 -0.486 V 11 h -4 Z M 20 5 a 2 2 0 0 0 -1.995 1.85 L 18 7 v 2 h 4 V 7 a 2 2 0 0 0 -2 -2 Z"/></svg>