<svg xmlns="http://www.w3.org/2000/svg" viewBox="0 0 32 32" aria-hidden="true" role="presentation" focusable="false" style="display: block; height: 24px; width: 24px; fill: currentcolor;"><path d="M 30 19 v 8 h -2 v -8 Z m -4 0 v 8 H 3 a 2 2 0 0 1 -1.995 -1.85 L 1 25 v -4 a 2 2 0 0 1 1.85 -1.995 L 3 19 Z m -2 2 H 3 v 4 h 21 Z M 21 3 a 4 4 0 0 1 3.356 6.178 l -0.1 0.145 l 0.137 0.041 a 8.004 8.004 0 0 1 5.603 7.387 L 30 17 h -2 a 6 6 0 0 0 -5.775 -5.996 L 22 11 h -1 V 9 a 2 2 0 0 0 0.15 -3.995 L 21 5 Z m -4 0 v 2 a 4 4 0 0 0 -0.2 7.995 L 17 13 h 5 a 4 4 0 0 1 3.995 3.8 L 26 17 h -2 a 2 2 0 0 0 -1.85 -1.995 L 22 15 h -5 a 6 6 0 0 1 -0.225 -11.996 Z"/></svg>