<svg xmlns="http://www.w3.org/2000/svg" viewBox="0 0 32 32" aria-hidden="true" role="presentation" focusable="false" style="display: block; height: 24px; width: 24px; fill: currentcolor;"><path d="M 9 29 v -2 h 2 v -2 H 6 a 5 5 0 0 1 -4.995 -4.783 L 1 20 V 8 a 5 5 0 0 1 4.783 -4.995 L 6 3 h 20 a 5 5 0 0 1 4.995 4.783 L 31 8 v 12 a 5 5 0 0 1 -4.783 4.995 L 26 25 h -5 v 2 h 2 v 2 Z m 10 -4 h -6 v 2 h 6 Z m 7 -20 H 6 a 3 3 0 0 0 -2.995 2.824 L 3 8 v 12 a 3 3 0 0 0 2.824 2.995 L 6 23 h 20 a 3 3 0 0 0 2.995 -2.824 L 29 20 V 8 a 3 3 0 0 0 -2.824 -2.995 Z"/></svg>