<svg viewBox="0 0 32 32" xmlns="http://www.w3.org/2000/svg" aria-hidden="true" role="presentation" focusable="false" style="display: block; height: 24px; width: 24px; fill: currentcolor;"><path d="m 15.9999 20.3332 c 2.02505 0 3.66667 1.64162 3.66667 3.66667 s -1.64162 3.66667 -3.66667 3.66667 s -3.66667 -1.64162 -3.66667 -3.66667 s 1.64162 -3.66667 3.66667 -3.66667 Z m 0 2 c -0.920476 0 -1.66667 0.746194 -1.66667 1.66667 s 0.746194 1.66667 1.66667 1.66667 s 1.66667 -0.746194 1.66667 -1.66667 s -0.746194 -1.66667 -1.66667 -1.66667 Z m 0.0001 -7.33323 c 3.51682 0 6.56251 2.01713 8.04324 4.95754 l -1.51433 1.5127 c -1.01421 -2.61569 -3.55498 -4.47024 -6.52891 -4.47024 s -5.5147 1.85455 -6.52891 4.47024 l -1.51382 -1.51371 c 1.48091 -2.93987 4.52631 -4.95653 8.04273 -4.95653 Z m 0.0001 -5.3332 c 4.98047 0 9.36764 2.54021 11.9366 6.39572 l -1.44709 1.44739 c -2.17468 -3.50727 -6.05931 -5.8431 -10.4895 -5.8431 s -8.31482 2.33583 -10.4895 5.8431 l -1.44709 -1.44739 c 2.56895 -3.85551 6.95612 -6.39572 11.9366 -6.39572 Z m -0.0002 -5.3336 c 6.45106 0 12.1767 3.10604 15.7629 7.90421 l -1.4305 1.43099 c -3.20865 -4.44342 -8.43283 -7.3352 -14.3324 -7.3352 c -5.89915 0 -11.123 2.89134 -14.3317 7.33419 l -1.43047 -1.43098 c 3.5863 -4.7976 9.31156 -7.90321 15.7622 -7.90321 Z"/></svg>