<svg viewBox="0 0 32 32" xmlns="http://www.w3.org/2000/svg" aria-hidden="true" role="presentation" focusable="false" style="display: block; height: 24px; width: 24px; fill: currentcolor;"><path d="M 26 2 a 1 1 0 0 1 0.922 0.612 l 0.04 0.113 l 2 7 a 1 1 0 0 1 -0.847 1.269 L 28 11 h -3 v 5 h 6 v 2 h -2 v 13 h -2 l 0.001 -2.536 a 3.976 3.976 0 0 1 -1.73 0.527 L 25 29 H 7 a 3.982 3.982 0 0 1 -2 -0.535 V 31 H 3 V 18 H 1 v -2 h 5 v -4 a 1 1 0 0 1 0.883 -0.993 L 7 11 h 0.238 L 6.086 8.406 l 1.828 -0.812 L 9.427 11 H 12 a 1 1 0 0 1 0.993 0.883 L 13 12 v 4 h 10 v -5 h -3 a 1 1 0 0 1 -0.987 -1.162 l 0.025 -0.113 l 2 -7 a 1 1 0 0 1 0.842 -0.718 L 22 2 h 4 Z m 1 16 H 5 v 7 a 2 2 0 0 0 1.697 1.977 l 0.154 0.018 L 7 27 h 18 a 2 2 0 0 0 1.995 -1.85 L 27 25 v -7 Z m -16 -5 H 8 v 3 h 3 v -3 Z m 14.245 -9 h -2.491 l -1.429 5 h 5.349 l -1.429 -5 Z"/></svg>